<svg aria-hidden="true" style="position: relative; z-index: 2" xmlns="http://www.w3.org/2000/svg" viewBox="0 0 1366 512"><!--!Font Awesome Pro 6.7.2 by @fontawesome - https://fontawesome.com License - https://fontawesome.com/license (Commercial License) Copyright 2025 Fonticons, Inc.--><defs><radialGradient id="sunFill" cx="0.5" cy="0.8" r="0.01" fx="0.5" fy="0.8"><stop offset="0%" stop-color="#FFB600" stop-opacity="1" /><stop offset="100%" stop-color="#FFB600" stop-opacity="0"><animate id="opacity-anim" attributeName="stop-opacity" values="0;0;0;1" keyTimes="0;0.8;0.9;1" dur="4.5s" begin="indefinite" fill="freeze" /></stop><animate id="radius-anim" attributeName="r" values="0.01;10.0" calcMode="spline" keySplines="0.42 0 1 1" dur="5s" begin="indefinite" fill="freeze"  /></radialGradient></defs><path class="" fill="#FFF" d="M10.1 85c23.6-6.1 47.7-10.9 72.2-14.2c0 2.4 0 4.9 0 7.3L48.8 118l-15.6 5 6.5 6.2 0 156.1c-13.6 1.5-23.8 2.8-29.7 3.6c0-51.8 0-119.7 0-203.9zm99.1-17.2c18.3-1.7 36.7-2.5 55.4-2.6c53.3 .1 105.1 7 154.5 19.8c0 0 0 132 0 203.9c-6.1-.8-14.5-1.9-25-3.1l0-16 9.5-.9 0-6-35.7-31.9c0-5.3 0-10.5 0-15.8l16.9-1.6 0-7.3-68.2-59.3 0-12.8 6.1 1.2 0-4.4-6.1-1.3 0-6-4.7-1 0 6-6.1-1.3 0 4.5 6.1 1.2 0 14.8-60.2 12.1 0-31.2 6.4-6L142.6 118 109.1 78.2c0-3.5 0-6.9 0-10.4z"/><path id="sunrise" class="fa-secondary" fill="url(#sunFill)" d="M10.1 85c23.6-6.1 47.7-10.9 72.2-14.2c0 2.4 0 4.9 0 7.3L48.8 118l-15.6 5 6.5 6.2 0 156.1c-13.6 1.5-23.8 2.8-29.7 3.6c0-51.8 0-119.7 0-203.9zm99.1-17.2c18.3-1.7 36.7-2.5 55.4-2.6c53.3 .1 105.1 7 154.5 19.8c0 0 0 132 0 203.9c-6.1-.8-14.5-1.9-25-3.1l0-16 9.5-.9 0-6-35.7-31.9c0-5.3 0-10.5 0-15.8l16.9-1.6 0-7.3-68.2-59.3 0-12.8 6.1 1.2 0-4.4-6.1-1.3 0-6-4.7-1 0 6-6.1-1.3 0 4.5 6.1 1.2 0 14.8-60.2 12.1 0-31.2 6.4-6L142.6 118 109.1 78.2c0-3.5 0-6.9 0-10.4z"/><path class="fa-primary" fill="#ffffff" d="M488.2 155c-4-12.7-10.8-27.3-27.4-27.3c-12.6 0-20.4 9.3-20.4 20.6c0 12.5 8.2 19.2 25.2 27.7c19 9.7 35.1 20.2 35.1 41.2c0 22.4-18.8 40-47.3 40c-15.1 0-30.2-5.8-32.6-7l-4.5-33.4 6.8-2c3.6 12.7 14.4 34.6 34.1 34.6c13.4 0 21.6-8.9 21.6-22.4c0-12.9-9.6-20.4-24.6-28.3c-17.8-9.3-34.3-20-34.3-40.6c0-21 16.6-38.2 44.1-38.2c11.6 0 21.8 3.4 27 5.1c.8 7.5 2 16 3.6 28.7l-6.4 1.4zm181 99.2v-6.1c9.6-1.2 10.8-2.2 10.8-16.6V197.7c0-14.3-6.2-20.4-15.4-20.4c-6.2 0-12 3.2-17.4 7.7v48.3c0 12.9 1.2 13.7 10.6 15v6.1H611.9v-6.1c12.2-1.6 13.2-2.2 13.2-15.6V190.8c0-12.5-1-13.1-11.2-15.2v-5.5c10.6-1.4 22.4-4.2 33.3-7.9v15.4c4-2.8 8-5.9 12.8-8.9c5.8-3.8 10.2-5.9 16-5.9c16 0 25.8 11.7 25.8 31.7V233c0 13.1 1.2 13.7 12.2 15.2v6.1l-44.9 0zm88.8 2.4c-14.4 0-22.6-7.5-22.6-25.1V174.4h-14l-.1-2.4 5.6-6.7h8.4V150.6l17.5-15 4.3-.1v29.8H778v9l-20.8 .1v50.5c0 16 7.2 18.2 11.6 18.2c4 0 7.6-1.2 10.8-2.6l2 6.3L758 256.7h0zm273.8-36.6l-8.6 32.1c-5.1 1.9-17.7 5-35 5c-46.7 0-66.7-35-66.7-66.9c0-42 28.7-70.5 70.9-70.5c14.6 0 27.6 4.2 32.5 5.5c1.4 11.1 2.7 20.2 4 32.1l-6.3 1.4c-5.4-23-18.2-30.7-34.1-30.7c-27.6 0-42.6 27.9-42.6 58.2c0 37.2 18.4 62.2 44 62.2c16.4 0 26.9-10.9 36.1-31.1l6 2.6 0 0zm12.2 34.1v-6.1c12.2-1.6 13.4-2.6 13.4-15.8V145c0-12.7-1-14-12.6-15.2v-5.7c11-1.2 25-4.2 34.7-7.1V232.4c0 13.5 1.4 14.6 13.8 15.8v6.1l-49.3 0zm193.3-69.9c6.8-11.9 15-21.4 23.2-21.4c7.6 0 12.8 5.5 12.8 11.7c0 5.9-3.8 11.1-8.6 12.9c-2.6 1-4.6 .6-5.8-.6c-3.4-2.8-5.8-4.2-9-4.2c-4.4 0-9.2 3.8-13 13.1v37.4c0 12.7 1 13.7 16.4 15v6.1h-51.1v-6.1c10.8-1.2 12.6-2.2 12.6-15V189.8c0-11.3-1.2-12.1-11.4-14.1v-5.3c11.2-1.6 22-4 33.5-7.9v21.8h.4l0 0zM477.1 313.2c-5.3 .3-7.5 2-8 5.5c-.4 2.7-.6 6.3-.6 13.7v9.2c0 10.3-1.6 18.2-6.8 23.8c-4.3 4.5-10.6 6.7-16.9 6.7c-5.8 0-11.5-1.3-15.8-4.7c-5.3-4.2-7.9-11.1-7.9-22V323c0-8.7-.8-9.2-7.9-9.8v-3.1h26.5v3.1c-6.9 .6-7.8 1.1-7.8 9.8v20.6c0 14.4 5.3 22.7 15.8 22.7c11.8 0 16.5-9.4 16.5-25v-8.9c0-7.3-.5-11-.8-13.9c-.6-3.4-2.6-4.9-9-5.3v-3.1h22.8v3.1l0 0zm107.5-.1c-5 .3-7 1.6-7.5 5.8c-.4 2.8-.7 7.2-.7 15.6v37.2h-3.9l-38.9-47.4h-.2v21.9c0 8.3 .4 12.5 .6 15.3c.5 4.4 2.2 5.9 8.9 6.3v3H520.6v-3c5.2-.4 7.4-1.8 7.9-6c.3-3.1 .7-7.3 .7-15.6V326.3c0-6.3-.1-7.7-1.9-9.8c-1.9-2.3-3.8-3.1-8-3.5v-3h15.9l36.6 43h.3V334.4c0-8.4-.5-12.8-.6-15.5c-.6-4-2.5-5.5-9.2-5.9v-3h22.3v3h0zm51.6 57.7v-3c7.1-.7 8-1.2 8-9.2V322.3c0-7.9-.8-8.6-8-9.1v-3.1h26.6v3.1c-7.1 .6-7.9 1.2-7.9 9.1v36.3c0 7.8 .7 8.5 7.9 9.2v3H636.3zm140.3-57.6c-6.1 .7-7.7 1.8-11.3 10.5c-2.9 6.8-11.8 28.8-18.9 48.2h-4c-6.3-17.1-14.6-38.7-19-49.9c-2.8-7.1-4.3-8.2-9.9-8.8v-3.1h25.8v3.1c-6.8 .9-6.8 1.9-5.4 5.9c2.6 7.2 9.6 25.8 14.1 37.2h.2c5-12.9 10-26.3 12.7-34.9c2-6.1 1.8-7.2-5.7-8.1v-3.1h21.4l0 3.1zm97.2 42.4c-.6 3.7-2.4 12.4-3.2 15.2H823.3v-3c8.1-.7 8.9-1.3 8.9-9.2V322.3c0-8.2-.8-8.6-7.6-9.1v-3.1H870c.1 1.9 .6 8.4 .9 13.8l-3.1 .5c-.8-3.5-1.9-6.3-3.4-8s-4-2.4-9.7-2.4h-8.1c-3.2 0-3.5 .2-3.5 3.2v20.3h7.1c8 0 8.9-.6 10.1-7h3.1v18.5h-3.1c-1.2-6.7-2.1-7.1-10.1-7.1H843v16.6c0 4.5 .5 6.6 2.2 7.7c1.7 .9 4.9 1 8.7 1c5.6 0 9.7-.7 11.8-3.1c1.8-2 3.4-5 5-9l3.1 .6h0zm108.1 16.1c-.7 0-1.9-.1-2.9-.1c-10-.5-13.7-2.9-17.6-8.9c-2.7-4.1-5.6-9.4-8.2-14.2c-1.5-2.8-3.1-3.9-6.8-3.9h-2.1v14.1c0 7.7 .8 8.5 8 9.2v3H925.7v-3c7.1-.7 8.1-1.4 8.1-9.2V322.1c0-7.7-.8-8.4-7.8-9v-3.1h24.9c7.6 0 12.2 .9 15.9 3.4c3.7 2.5 6.2 6.6 6.2 12.4c0 8.1-5.3 12.7-11.7 15.4c1.5 2.9 5 9.2 7.8 13.4c3.3 5.1 5.3 7.9 7.3 10c2.1 2.4 3.9 3.5 6 4.2l-.6 2.8 0 0zm-34.5-30.5c4.3 0 7.3-.7 9.4-2.5c3.2-2.7 4.6-6.4 4.6-11.3c0-10-5.9-13.7-11.8-13.7c-2.4 0-3.8 .5-4.4 .9c-.6 .6-.8 1.6-.8 3.7v22.9h3.1 0zm119.1-16.1c-1.8-5.9-5-12.6-12.7-12.6c-5.8 0-9.4 4.3-9.4 9.5c0 5.8 3.8 8.9 11.7 12.8c8.8 4.5 16.2 9.3 16.2 19c0 10.4-8.7 18.5-21.8 18.5c-3.5 0-6.7-.6-9.2-1.4c-2.5-.7-4.2-1.4-5.3-2c-.8-2.2-2-10.1-2.7-15.3l3.1-.9c1.7 5.9 6.7 16 15.7 16c6.2 0 10-4.1 10-10.4c0-6-4.4-9.4-11.4-13.1c-8.2-4.3-15.8-9.2-15.8-18.8c0-9.7 7.7-17.6 20.4-17.6c5.4 0 10.1 1.6 12.5 2.3c.4 3.5 .9 7.4 1.7 13.3l-3 .7 0 0zm64.5 45.8v-3c7.1-.7 8-1.2 8-9.2V322.3c0-7.9-.8-8.6-8-9.1v-3.1h26.6v3.1c-7.1 .6-7.9 1.2-7.9 9.1v36.3c0 7.8 .7 8.5 7.9 9.2v3H1131zm129.6-45.3c-1.1-4.7-2.2-7.6-3.6-9.2c-1.7-1.9-3.7-2.4-9.7-2.4h-5v44.7c0 7.7 .8 8.5 9.3 9.2v3h-28.9v-3c8-.7 8.9-1.4 8.9-9.2V313.9h-4.2c-7.6 0-9.3 .8-10.6 2.6c-1.4 1.6-2.4 4.6-3.5 9.1H1210c.4-6.3 .9-13 1.1-17.8h2.1c1.4 2.1 2.6 2.3 5.2 2.3h37c2.4 0 3.5-.6 5.1-2.3h2.1c0 4 .5 11.8 .9 17.5l-3 .2 0 0zM1365 313.2c-6.1 .7-7.7 2.1-11.1 7.7c-3.7 6-6.4 10.5-10.8 19c-1.3 2.4-1.7 3.5-1.7 6.3v12.2c0 8.2 .7 8.8 9.1 9.4v3h-28.6v-3c8-.6 8.8-1.2 8.8-9.4V347.2c0-2.1-.4-3.1-1.5-5.3c-2.8-5.3-6.2-11.5-11.5-20.9c-3.6-6.3-4.9-7.2-10.2-7.8v-3.1h24.8v3.1c-6.2 .8-6.1 2-4.4 5.2c3.5 6.8 7.5 14 11.3 20.9c3-5.6 7.8-14.5 10.1-20.2c1.8-4.1 1.6-5.2-5.4-6v-3.1H1365v3.1 0zM582.8 256.6c-4.6 0-8.6-1.8-11.2-4c-2.6-2.6-4-5.2-5-8.1c-2.5 2.3-15.1 12.1-24.1 12.1c-14.9 0-23.6-12.9-23.6-25.4c0-9.3 7-15.6 17.4-20.1c11.6-5 29.8-12.8 29.8-12.8V187c0-8.7-2.5-14.4-10.2-14.4c-9.1 0-13.6 4.9-16.2 14.5c-1.1 4.2-1.8 8.8-7.9 8.8c-5.5 0-11.4-4.9-11.4-9.6c0-9.5 21.3-18.5 38.4-23.2c21.5 0 28.6 12 28.6 31.5v38c0 7.2 2.4 9.7 6.6 9.7c2.4 0 5.1-.8 7.1-1.8l1.9 5.1-20.2 11.1 0 0zM566 205.8s-9.1 4.1-13.3 6.3c-6.8 3.2-10.7 8-10.7 15c0 10.9 5.9 15.3 12.8 15.3c3.6 0 7.6-1.8 11.2-4.6l0-32zm291 50.8c-4.6 0-8.6-1.8-11.2-4c-2.6-2.6-4-5.2-5-8.1c-2.5 2.3-15.1 12.1-24.1 12.1c-14.9 0-23.6-12.9-23.6-25.4c0-9.3 7-15.6 17.4-20.1c11.6-5 29.8-12.8 29.8-12.8V187c0-8.7-2.5-14.4-10.2-14.4c-9.1 0-13.6 4.9-16.2 14.5c-1.1 4.2-1.8 8.8-7.9 8.8c-5.5 0-11.4-4.9-11.4-9.6c0-9.5 21.3-18.5 38.4-23.2c21.5 0 28.6 12 28.6 31.5v38c0 7.2 2.4 9.7 6.6 9.7c2.4 0 5.1-.8 7.1-1.8l1.9 5.1L857 256.6l0 0zm-16.8-50.8s-9.1 4.1-13.3 6.3c-6.8 3.2-10.7 8-10.7 15c0 10.9 5.9 15.3 12.8 15.3c3.6 0 7.6-1.8 11.2-4.6v-32h0zm331.1 50.8c-4.6 0-8.6-1.8-11.2-4c-2.6-2.6-4-5.2-5-8.1c-2.5 2.3-15.1 12.1-24.1 12.1c-14.9 0-23.6-12.9-23.6-25.4c0-9.3 7-15.6 17.4-20.1c11.6-5 29.8-12.8 29.8-12.8V187c0-8.7-2.5-14.4-10.2-14.4c-9.1 0-13.6 4.9-16.2 14.5c-1.1 4.2-1.8 8.8-7.9 8.8c-5.5 0-11.4-4.9-11.4-9.6c0-9.5 21.3-18.5 38.4-23.2c21.5 0 28.6 12 28.6 31.5v38c0 7.2 2.4 9.7 6.6 9.7c2.4 0 5.1-.8 7.1-1.8l1.9 5.1-20.2 11.1 0 0zm-16.8-50.8s-9.1 4.1-13.3 6.3c-6.8 3.2-10.7 8-10.7 15c0 10.9 5.9 15.3 12.8 15.3c3.6 0 7.6-1.8 11.2-4.6l0-32zm190.2 50.8c-4.6 0-8.6-1.8-11.2-4c-2.6-2.6-4-5.2-5-8.1c-2.5 2.3-15.1 12.1-24.1 12.1c-14.9 0-23.6-12.9-23.6-25.4c0-9.3 7-15.6 17.3-20.1c11.6-5 29.8-12.8 29.8-12.8V187c0-8.7-2.5-14.4-10.2-14.4c-9.1 0-13.6 4.9-16.2 14.5c-1.1 4.2-1.8 8.8-7.9 8.8c-5.5 0-11.4-4.9-11.4-9.6c0-9.5 21.3-18.5 38.4-23.2c21.5 0 28.6 12 28.6 31.5v38c0 7.2 2.4 9.7 6.6 9.7c2.4 0 5.1-.8 7.1-1.8l1.9 5.1-20.2 11.1 0 0zm-16.8-50.8s-9.1 4.1-13.3 6.3c-6.8 3.2-10.6 8-10.6 15c0 10.9 5.9 15.3 12.8 15.3c3.6 0 7.6-1.8 11.2-4.6v-32h0zM127.4 378.1V380H109.1v-1.9c5.4-.3 5.7-.8 5.7-4.6v-19c0-2.7-.9-2.9-3.1-3.2l-1.6-.3v-1.7c4-.5 8.5-1.5 11.6-2.6v26.8c0 3.9 .3 4.4 5.6 4.6zm32.3-7.5c0 6.7-6.6 10-11.7 10c-7 0-11.4-3.6-11.4-8.9c0-2.5 1.2-3.9 2.2-4.8c1-.8 3.2-2.1 4.7-3c-3-1.7-5.7-4.3-5.7-8.2c0-5 4.4-9.1 10.7-9.1c5.8 0 9.6 3.5 9.6 8.1c0 1.5-.5 2.9-1.7 4c-.8 .7-1.9 1.5-3.9 2.7c3.7 2 7 4.5 7 9l0 0zM144 353.4c0 3.5 2.6 5.2 6.8 7.1c1.2-1.1 1.9-2.6 1.9-5.6c0-4.6-2.7-6.1-4.7-6.1c-2.6 0-4 1.9-4 4.6zm9.3 19.8c-.1-3.7-2.5-5.5-7.7-8.1c-1.6 1.2-2.8 3.4-2.8 6.1c0 5 2.9 7.3 5.8 7.3s4.7-1.8 4.6-5.3zm61 .3V346.7c-3.1 1.1-7.6 2.2-11.6 2.6V351l1.6 .3c2.1 .3 3.1 .5 3.1 3.2v19c0 3.8-.4 4.4-5.7 4.6V380h18.3v-1.9c-5.3-.3-5.6-.7-5.6-4.6zm-33-14.2c-1.4 0-4.3 .7-6.9 1.6c.5-2.2 1.2-5.6 1.7-7.9h13l1.7-5.2-.3-.5h-16c-.7 4.9-2 11.6-3 16.4l.3 .3c1.4-.4 3.1-.9 5.4-.9c4.8 0 7.8 3.1 7.8 7.8c0 3.8-1.5 6.7-4.7 6.7c-3.3 0-5.6-2.2-6.8-3.3c-.7-.7-1.4-.7-2-.3c-.9 .7-1.6 1.9-1.6 2.8c0 .7 .2 1.3 1.3 2.1c1.2 1 3.4 1.7 5.5 1.7c3.1 0 7-1.4 9.9-3.5c3.7-2.6 5.2-5.8 5.2-9.1c0-4.5-3.5-8.8-10.3-8.8l0 0zM294 266.4v36.8l-8.9 .2V274.5l-13.3-.5v29.7l-41.6 1.1V266.8h0s0 0 0 0c0-8.9-6.5-16.8-15.9-16.8c-8.8 0-15.9 6.4-15.9 15.3v40.5l-61.5 1.7V268.6l-22.9-.8V308l-18.2 .5V112.3l56 16.7v62.2l64.1-25.8 52 46.4v31.1L294 266.4zM117.9 130.1c0-2.7-2.2-5.5-4.9-6.2c-1.7-.5-3.1 0-4 1c2 1.2 3.4 3.4 3.4 5.6v21.4l5.5 1.3V130.1zm11.4 57.6l-9.5-1.8v29.4l9.5 1.3V187.7zm11-51.1c0-2.7-2.2-5.5-4.9-6.2c-1.7-.5-3.1 0-4 1c2 1.2 3.4 3.4 3.4 5.6v20.2l5.5 1.3V136.5zm79.7 53.4c0-3.2-2.6-6.5-5.7-7.3c-2-.5-3.7 0-4.7 1.2c2.3 1.4 4 4 4 6.6V213l6.5 1.1 0-24.1zM78.1 124c-2.7 .7-4.9 3.5-4.9 6.2v23l5.5-1.3V130.6c0-2.2 1.4-4.4 3.4-5.6c-.9-1-2.3-1.5-4-1l0 0zm26-69c-1.6 .4-3.6 .6-5.9 .7V73.4c2.3 .1 4.3 .3 5.9 .7V55v0zM87.3 74.1c1.6-.4 3.6-.6 5.9-.7V55.7c-2.3-.1-4.3-.3-5.9-.7V74.1zM55.7 130.4c-2.7 .7-4.9 3.5-4.9 6.2v21.9l5.5-1.3V137c0-2.2 1.4-4.4 3.4-5.6c-.9-1-2.3-1.5-4-1l0 0zm108.8-75c-15.3 0-30.5 .6-45.7 1.7V50.9c0-8.8-4.9-16.5-12.1-20.5c2-2.5 3.2-5.7 3.2-9.1c0-8-6.4-14.4-14.3-14.4s-14.3 6.5-14.3 14.4c0 3.5 1.2 6.6 3.2 9.1c-7.2 4-12 11.7-12 20.5V62.4C48.2 66 24.1 71 .3 77.4V293.7C.3 341 33.1 408.3 164.5 457.4C295.9 408.3 328.7 341 328.7 293.7V77.4C275.2 63 220 55.5 164.5 55.4zM319 293.7c0 40.7-28.3 105.4-154.5 153.2C38.3 399.1 10.1 334.4 10.1 293.7v-4.8V85c23.6-6.1 47.7-10.9 72.2-14.2v-20c0-6.7 4.8-12.2 10.9-13.3l0-14.7-6.5-1.3V16.8l6.5 1.4V11.7l5 1.1v6.4l6.5 1.4v4.8L98.2 24V37.7c6.2 1.2 10.9 6.5 10.9 13.2V67.8c18.3-1.7 36.7-2.5 55.4-2.6c53.3 .1 105.1 7 154.5 19.8V288.9v4.8l0 0z"/></svg>