<svg xmlns="http://www.w3.org/2000/svg" viewBox="0 0 1200 630" role="img" aria-labelledby="title desc">
  <title id="title">Jordan Blum — Product Engineer</title>
  <desc id="desc">A warm paper-colored card with Jordan Blum's name and small workbench artifacts.</desc>
  <rect width="1200" height="630" fill="#F7F3ED"/>
  <rect x="56" y="52" width="1088" height="526" rx="18" fill="#FCFAF6" stroke="#DDD5CB"/>
  <text x="104" y="112" fill="#9C4037" font-family="ui-monospace, monospace" font-size="18" letter-spacing="1.5">PRODUCT ENGINEER · NEW YORK</text>
  <text x="100" y="270" fill="#2B2521" font-family="Arial, Helvetica, sans-serif" font-size="94" font-weight="600" letter-spacing="-5">Jordan Blum</text>
  <text x="104" y="330" fill="#746960" font-family="Arial, Helvetica, sans-serif" font-size="28">AI products, useful systems, and oddly specific side projects.</text>
  <g transform="translate(732 382) rotate(-2)">
    <rect width="270" height="132" rx="9" fill="#F7F3ED" stroke="#DDD5CB"/>
    <text x="18" y="28" fill="#746960" font-family="ui-monospace, monospace" font-size="11">REED / TRACE</text>
    <circle cx="24" cy="58" r="4" fill="none" stroke="#9C4037"/>
    <circle cx="24" cy="84" r="4" fill="none" stroke="#9C4037"/>
    <circle cx="24" cy="110" r="4" fill="none" stroke="#9C4037"/>
    <path d="M24 62V80M24 88V106" stroke="#DDD5CB"/>
    <path d="M42 58H210M42 84H236M42 110H188" stroke="#746960" stroke-opacity=".5"/>
  </g>
  <g transform="translate(1018 405) rotate(5)">
    <rect width="80" height="105" rx="4" fill="#9C4037"/>
    <text x="12" y="24" fill="#FCFAF6" font-family="ui-monospace, monospace" font-size="9">SIDE</text>
    <text x="12" y="38" fill="#FCFAF6" font-family="ui-monospace, monospace" font-size="9">QUESTS</text>
    <path d="M12 58H64M12 72H55M12 86H61" stroke="#FCFAF6" stroke-opacity=".65"/>
  </g>
</svg>
