<?xml version="1.0" encoding="UTF-8"?>
<svg xmlns="http://www.w3.org/2000/svg" viewBox="0 0 576.87 290">
  <defs>
    <style>
      .cls-1 {
        fill: #961b1e;
      }
      @keyframes bounce {
        0%, 100% { transform: translateY(0); }
        50% { transform: translateY(-40px); }
      }
      #Layer_1 path {
        animation: bounce 0.7s ease-in-out 0s 1;
      }
      #Layer_2 path {
        animation: bounce 0.7s ease-in-out 0.2s 1;
      }
      #Layer_3 path {
        animation: bounce 0.7s ease-in-out 0.4s 1;
      }
      #Layer_4 path {
        animation: bounce 0.7s ease-in-out 0.6s 1;
      }
      path {
        transform-origin: center;
        animation-fill-mode: forwards;
      }
    </style>
  </defs>
  <g id="Layer_1">
    <path class="cls-1" d="M40.1,50.45C9.92,177.58-5.18,241.14,13.38,258.41c32.98,30.7,110.83,18.19,125.55-13.9,4.95-10.79,5.09-28.86-1.25-44.39-1.44-3.52-6.21-14.25-17.15-23.74-21.28-18.45-50.18-18.54-50.05-19.4.13-.87,27.86,10.32,46.92.02,27.5-14.85,39.89-75.95,11.46-110.33C110.69,24.7,74.84,12.47,55.33,25.09c-10.66,6.9-13.84,19.53-15.23,25.36Z"/>
  </g>
  <g id="Layer_2">
    <path class="cls-1" d="M178.6,79.07c.33,89.68-51.25,146.98-18.3,183.82,23.04,25.76,72.82,25.22,104.33,8.33,21.86-11.72,41.55-34.85,36.45-44.7-7.44-14.39-67.76,28.41-95.41,5.95-27.08-22-20.84-105.75,7.7-146.75,5.61-8.05,15.14-18.78,11.61-28.15-4.16-11.02-25.3-17.23-36.43-9.95-10.4,6.8-9.98,23.99-9.95,31.46Z"/>
  </g>
  <g id="Layer_3">
    <path class="cls-1" d="M235.09,80.92c-35.31,39.13-47.18,110.13-16.62,134.14,19.6,15.4,49.28,5.69,51.34,4.99,60.69-20.76,78.86-131.03,54.72-147.37-6.24-4.22-16.42-2.93-23.19,1.65-26.34,17.81,5.2,81.17-19.92,99.36-10.74,7.78-30.31,6.18-38.09-3.33-21.15-25.85,48.57-105.56,36.48-115.91-5.97-5.12-29.08,9.14-44.73,26.48Z"/>
  </g>
  <g id="Layer_4">
    <path class="cls-1" d="M313.19,268.57c-31.48-26.84,56.66-203.68,92.83-195.39,27.5,6.31,17.71,105.85,39.25,106.68,25.87,1,49.98-111.97,78.34-109.94,35.12,2.52,78.76,232.66,34.69,208.69-9.34-5.08-17.17-82.39-37.33-96.8-26.82-19.18-60.17,69.16-72.86,70.88-24.29,3.3-47.24-74.35-66.09-70.94-14.94,2.7-32.1,48.39-20.8,78.56,2.87,7.67-37.82,16.97-48.03,8.26Z"/>
  </g>
</svg>
